<?xml version="1.0"?>
<!-- Generated by SVGo -->
<svg width="1143" height="832"
     style="background-color:white"
     xmlns="http://www.w3.org/2000/svg"
     xmlns:xlink="http://www.w3.org/1999/xlink">
<defs>
<style type="text/css">
<![CDATA[
@import url('https://fonts.googleapis.com/css?family=Roboto:400,100,100italic,300,300italic,400italic,500,500italic,700,700italic,900,900italic');
]]>
</style>
</defs>
<rect x="16" y="16" width="992" height="48" rx="4" ry="4" style="fill:#44536a" />
<text x="19" y="45" style="font:bold 14px Roboto;fill:white" >Feb 27</text>
<line x1="16" y1="64" x2="16" y2="816" style="stroke:#f0f0f0;z-index:0" />
<text x="960" y="45" style="font:bold 14px Roboto;fill:white" >Mar 30</text>
<line x1="1008" y1="64" x2="1008" y2="816" style="stroke:#f0f0f0;z-index:0" />
<text x="84" y="45" style="font:bold 14px Roboto;fill:white" >Mar 1</text>
<line x1="102" y1="51" x2="102" y2="61" style="stroke:white;stroke-width:2px" />
<line x1="102" y1="51" x2="102" y2="816" style="stroke:#f0f0f0;z-index:0" />
<text x="170" y="45" style="font:bold 14px Roboto;fill:white" >Mar 3</text>
<line x1="188" y1="51" x2="188" y2="61" style="stroke:white;stroke-width:2px" />
<line x1="188" y1="51" x2="188" y2="816" style="stroke:#f0f0f0;z-index:0" />
<text x="256" y="45" style="font:bold 14px Roboto;fill:white" >Mar 7</text>
<line x1="274" y1="51" x2="274" y2="61" style="stroke:white;stroke-width:2px" />
<line x1="274" y1="51" x2="274" y2="816" style="stroke:#f0f0f0;z-index:0" />
<text x="342" y="45" style="font:bold 14px Roboto;fill:white" >Mar 9</text>
<line x1="360" y1="51" x2="360" y2="61" style="stroke:white;stroke-width:2px" />
<line x1="360" y1="51" x2="360" y2="816" style="stroke:#f0f0f0;z-index:0" />
<text x="424" y="45" style="font:bold 14px Roboto;fill:white" >Mar 13</text>
<line x1="446" y1="51" x2="446" y2="61" style="stroke:white;stroke-width:2px" />
<line x1="446" y1="51" x2="446" y2="816" style="stroke:#f0f0f0;z-index:0" />
<text x="510" y="45" style="font:bold 14px Roboto;fill:white" >Mar 15</text>
<line x1="532" y1="51" x2="532" y2="61" style="stroke:white;stroke-width:2px" />
<line x1="532" y1="51" x2="532" y2="816" style="stroke:#f0f0f0;z-index:0" />
<text x="596" y="45" style="font:bold 14px Roboto;fill:white" >Mar 17</text>
<line x1="618" y1="51" x2="618" y2="61" style="stroke:white;stroke-width:2px" />
<line x1="618" y1="51" x2="618" y2="816" style="stroke:#f0f0f0;z-index:0" />
<text x="682" y="45" style="font:bold 14px Roboto;fill:white" >Mar 21</text>
<line x1="704" y1="51" x2="704" y2="61" style="stroke:white;stroke-width:2px" />
<line x1="704" y1="51" x2="704" y2="816" style="stroke:#f0f0f0;z-index:0" />
<text x="768" y="45" style="font:bold 14px Roboto;fill:white" >Mar 23</text>
<line x1="790" y1="51" x2="790" y2="61" style="stroke:white;stroke-width:2px" />
<line x1="790" y1="51" x2="790" y2="816" style="stroke:#f0f0f0;z-index:0" />
<text x="854" y="45" style="font:bold 14px Roboto;fill:white" >Mar 27</text>
<line x1="876" y1="51" x2="876" y2="61" style="stroke:white;stroke-width:2px" />
<line x1="876" y1="51" x2="876" y2="816" style="stroke:#f0f0f0;z-index:0" />
<line x1="962" y1="51" x2="962" y2="61" style="stroke:white;stroke-width:2px" />
<line x1="962" y1="51" x2="962" y2="816" style="stroke:#f0f0f0;z-index:0" />
<rect x="16" y="59" width="0" height="5" rx="4" ry="4" style="fill:#d4182d" />
<rect x="16" y="59" width="0" height="2" style="fill:#d4182d" />
<rect x="32" y="59" width="-16" height="5" style="fill:#d4182d" />
<rect x="16" y="59" width="0" height="5" style="fill:orange" />
<text x="16" y="96" style="font:bold 12px Roboto" >1 - Phase 1</text>
<rect x="16" y="100" width="714" height="18" rx="4" ry="4" style="fill:#589ad7" />
<text x="746" y="113" style="font:normal 11px Roboto" >Feb 27 - Mar 22</text>
<text x="16" y="142" style="font:bold 12px Roboto" >1.1 - Design</text>
<rect x="16" y="146" width="168" height="18" rx="4" ry="4" style="fill:#589ad7" />
<text x="200" y="159" style="font:normal 11px Roboto" >Feb 27 - Mar 3</text>
<text x="16" y="188" style="font:bold 12px Roboto" >1.1.1 - Task 1</text>
<rect x="16" y="192" width="84" height="18" rx="4" ry="4" style="fill:#589ad7" />
<text x="116" y="205" style="font:normal 11px Roboto" >Feb 27 - Mar 1</text>
<text x="16" y="234" style="font:bold 12px Roboto" >1.1.2 - Task 2</text>
<rect x="16" y="238" width="168" height="18" rx="4" ry="4" style="fill:#589ad7" />
<text x="200" y="251" style="font:normal 11px Roboto" >Feb 27 - Mar 3</text>
<text x="232" y="280" style="font:bold 12px Roboto" >1.2 - Implementation</text>
<rect x="232" y="284" width="210" height="18" rx="4" ry="4" style="fill:#589ad7" />
<text x="458" y="297" style="font:normal 11px Roboto" >Mar 6 - Mar 13</text>
<text x="232" y="326" style="font:bold 12px Roboto" >1.2.1 - Task 1</text>
<rect x="232" y="330" width="42" height="18" rx="4" ry="4" style="fill:#589ad7" />
<text x="290" y="343" style="font:normal 11px Roboto" >Mar 6 - Mar 6</text>
<text x="232" y="372" style="font:bold 12px Roboto" >1.2.2 - Task 2</text>
<rect x="232" y="376" width="42" height="18" rx="4" ry="4" style="fill:#589ad7" />
<text x="290" y="389" style="font:normal 11px Roboto" >Mar 6 - Mar 7</text>
<text x="232" y="418" style="font:bold 12px Roboto" >1.2.3 - Task 3</text>
<rect x="232" y="422" width="210" height="18" rx="4" ry="4" style="fill:#589ad7" />
<text x="458" y="435" style="font:normal 11px Roboto" >Mar 6 - Mar 13</text>
<text x="438" y="464" style="font:bold 12px Roboto" >1.3 - Milestone 1</text>
<polygon points="438,477 446,468 454,477 446,486" style="fill:#ecb22f" />
<text x="478" y="481" style="font:normal 11px Roboto" >Mar 13 - Mar 13</text>
<text x="446" y="510" style="font:bold 12px Roboto" >1.4 - Implementation</text>
<rect x="446" y="514" width="294" height="18" rx="4" ry="4" style="fill:#589ad7" />
<text x="756" y="527" style="font:normal 11px Roboto" >Mar 13 - Mar 22</text>
<text x="446" y="556" style="font:bold 12px Roboto" >1.4.1 - Task 1</text>
<rect x="446" y="560" width="210" height="18" rx="4" ry="4" style="fill:#589ad7" />
<text x="672" y="573" style="font:normal 11px Roboto" >Mar 13 - Mar 20</text>
<text x="446" y="602" style="font:bold 12px Roboto" >1.4.2 - Task 2</text>
<rect x="446" y="606" width="294" height="18" rx="4" ry="4" style="fill:#589ad7" />
<text x="756" y="619" style="font:normal 11px Roboto" >Mar 13 - Mar 22</text>
<text x="662" y="648" style="font:bold 12px Roboto" >1.4.3 - Task 3</text>
<rect x="662" y="652" width="42" height="18" rx="4" ry="4" style="fill:#589ad7" />
<text x="720" y="665" style="font:normal 11px Roboto" >Mar 20 - Mar 21</text>
<text x="740" y="694" style="font:bold 12px Roboto" >1.5 - Milestone 2</text>
<polygon points="740,707 748,698 756,707 748,716" style="fill:#ecb22f" />
<text x="780" y="711" style="font:normal 11px Roboto" >Mar 22 - Mar 22</text>
<text x="748" y="740" style="font:bold 12px Roboto" >2 - Phase 2</text>
<rect x="748" y="744" width="210" height="18" rx="4" ry="4" style="fill:#589ad7" />
<text x="974" y="757" style="font:normal 11px Roboto" >Mar 22 - Mar 29</text>
<text x="748" y="786" style="font:bold 12px Roboto" >2.1 - Planning</text>
<rect x="748" y="790" width="210" height="18" rx="4" ry="4" style="fill:#589ad7" />
<text x="974" y="803" style="font:normal 11px Roboto" >Mar 22 - Mar 29</text>
</svg>
