<?xml version="1.0"?>
<!-- Generated by SVGo -->
<svg width="1143" height="740"
     xmlns="http://www.w3.org/2000/svg"
     xmlns:xlink="http://www.w3.org/1999/xlink">
<defs>
<style type="text/css">
<![CDATA[
@import url('https://fonts.googleapis.com/css?family=Roboto:400,100,100italic,300,300italic,400italic,500,500italic,700,700italic,900,900italic');
]]>
</style>
</defs>
<rect x="16" y="16" width="992" height="48" rx="4" ry="4" style="fill:#44536a" />
<text x="19" y="45" style="font:bold 14px Roboto;fill:white" >Feb 27</text>
<line x1="16" y1="64" x2="16" y2="724" style="stroke:#f0f0f0;z-index:0" />
<text x="960" y="45" style="font:bold 14px Roboto;fill:white" >Mar 23</text>
<line x1="1008" y1="64" x2="1008" y2="724" style="stroke:#f0f0f0;z-index:0" />
<line x1="71" y1="51" x2="71" y2="61" style="stroke:white;stroke-width:2px" />
<line x1="71" y1="51" x2="71" y2="724" style="stroke:#f0f0f0;z-index:0" />
<text x="108" y="45" style="font:bold 14px Roboto;fill:white" >Mar 1</text>
<line x1="126" y1="51" x2="126" y2="61" style="stroke:white;stroke-width:2px" />
<line x1="126" y1="51" x2="126" y2="724" style="stroke:#f0f0f0;z-index:0" />
<text x="163" y="45" style="font:bold 14px Roboto;fill:white" >Mar 2</text>
<line x1="181" y1="51" x2="181" y2="61" style="stroke:white;stroke-width:2px" />
<line x1="181" y1="51" x2="181" y2="724" style="stroke:#f0f0f0;z-index:0" />
<text x="218" y="45" style="font:bold 14px Roboto;fill:white" >Mar 3</text>
<line x1="236" y1="51" x2="236" y2="61" style="stroke:white;stroke-width:2px" />
<line x1="236" y1="51" x2="236" y2="724" style="stroke:#f0f0f0;z-index:0" />
<text x="273" y="45" style="font:bold 14px Roboto;fill:white" >Mar 6</text>
<line x1="291" y1="51" x2="291" y2="61" style="stroke:white;stroke-width:2px" />
<line x1="291" y1="51" x2="291" y2="724" style="stroke:#f0f0f0;z-index:0" />
<text x="328" y="45" style="font:bold 14px Roboto;fill:white" >Mar 7</text>
<line x1="346" y1="51" x2="346" y2="61" style="stroke:white;stroke-width:2px" />
<line x1="346" y1="51" x2="346" y2="724" style="stroke:#f0f0f0;z-index:0" />
<text x="383" y="45" style="font:bold 14px Roboto;fill:white" >Mar 8</text>
<line x1="401" y1="51" x2="401" y2="61" style="stroke:white;stroke-width:2px" />
<line x1="401" y1="51" x2="401" y2="724" style="stroke:#f0f0f0;z-index:0" />
<text x="438" y="45" style="font:bold 14px Roboto;fill:white" >Mar 9</text>
<line x1="456" y1="51" x2="456" y2="61" style="stroke:white;stroke-width:2px" />
<line x1="456" y1="51" x2="456" y2="724" style="stroke:#f0f0f0;z-index:0" />
<text x="489" y="45" style="font:bold 14px Roboto;fill:white" >Mar 10</text>
<line x1="511" y1="51" x2="511" y2="61" style="stroke:white;stroke-width:2px" />
<line x1="511" y1="51" x2="511" y2="724" style="stroke:#f0f0f0;z-index:0" />
<line x1="566" y1="51" x2="566" y2="61" style="stroke:white;stroke-width:2px" />
<line x1="566" y1="51" x2="566" y2="724" style="stroke:#f0f0f0;z-index:0" />
<text x="599" y="45" style="font:bold 14px Roboto;fill:white" >Mar 14</text>
<line x1="621" y1="51" x2="621" y2="61" style="stroke:white;stroke-width:2px" />
<line x1="621" y1="51" x2="621" y2="724" style="stroke:#f0f0f0;z-index:0" />
<line x1="676" y1="51" x2="676" y2="61" style="stroke:white;stroke-width:2px" />
<line x1="676" y1="51" x2="676" y2="724" style="stroke:#f0f0f0;z-index:0" />
<text x="709" y="45" style="font:bold 14px Roboto;fill:white" >Mar 16</text>
<line x1="731" y1="51" x2="731" y2="61" style="stroke:white;stroke-width:2px" />
<line x1="731" y1="51" x2="731" y2="724" style="stroke:#f0f0f0;z-index:0" />
<line x1="786" y1="51" x2="786" y2="61" style="stroke:white;stroke-width:2px" />
<line x1="786" y1="51" x2="786" y2="724" style="stroke:#f0f0f0;z-index:0" />
<text x="819" y="45" style="font:bold 14px Roboto;fill:white" >Mar 20</text>
<line x1="841" y1="51" x2="841" y2="61" style="stroke:white;stroke-width:2px" />
<line x1="841" y1="51" x2="841" y2="724" style="stroke:#f0f0f0;z-index:0" />
<line x1="896" y1="51" x2="896" y2="61" style="stroke:white;stroke-width:2px" />
<line x1="896" y1="51" x2="896" y2="724" style="stroke:#f0f0f0;z-index:0" />
<line x1="951" y1="51" x2="951" y2="61" style="stroke:white;stroke-width:2px" />
<line x1="951" y1="51" x2="951" y2="724" style="stroke:#f0f0f0;z-index:0" />
<rect x="16" y="59" width="0" height="5" rx="4" ry="4" style="fill:#d4182d" />
<rect x="16" y="59" width="0" height="2" style="fill:#d4182d" />
<rect x="32" y="59" width="-16" height="5" style="fill:#d4182d" />
<rect x="16" y="59" width="0" height="5" style="fill:orange" />
<text x="16" y="96" style="font:bold 12px Roboto" >1 - Phase 1</text>
<rect x="16" y="100" width="918" height="18" rx="4" ry="4" style="fill:#589ad7" />
<text x="950" y="113" style="font:normal 11px Roboto" >Feb 27 - Mar 22</text>
<text x="16" y="142" style="font:bold 12px Roboto" >1.1 - Design</text>
<rect x="16" y="146" width="216" height="18" rx="4" ry="4" style="fill:#589ad7" />
<text x="248" y="159" style="font:normal 11px Roboto" >Feb 27 - Mar 3</text>
<text x="16" y="188" style="font:bold 12px Roboto" >1.1.1 - Task 1</text>
<rect x="16" y="192" width="108" height="18" rx="4" ry="4" style="fill:#589ad7" />
<text x="140" y="205" style="font:normal 11px Roboto" >Feb 27 - Mar 1</text>
<text x="16" y="234" style="font:bold 12px Roboto" >1.1.2 - Task 2</text>
<rect x="16" y="238" width="216" height="18" rx="4" ry="4" style="fill:#589ad7" />
<text x="248" y="251" style="font:normal 11px Roboto" >Feb 27 - Mar 3</text>
<text x="291" y="280" style="font:bold 12px Roboto" >1.2 - Implementation</text>
<rect x="291" y="284" width="270" height="18" rx="4" ry="4" style="fill:#589ad7" />
<text x="577" y="297" style="font:normal 11px Roboto" >Mar 6 - Mar 13</text>
<text x="291" y="326" style="font:bold 12px Roboto" >1.2.1 - Task 1</text>
<rect x="291" y="330" width="54" height="18" rx="4" ry="4" style="fill:#589ad7" />
<text x="361" y="343" style="font:normal 11px Roboto" >Mar 6 - Mar 6</text>
<text x="291" y="372" style="font:bold 12px Roboto" >1.2.2 - Task 2</text>
<rect x="291" y="376" width="54" height="18" rx="4" ry="4" style="fill:#589ad7" />
<text x="361" y="389" style="font:normal 11px Roboto" >Mar 6 - Mar 7</text>
<text x="291" y="418" style="font:bold 12px Roboto" >1.2.3 - Task 3</text>
<rect x="291" y="422" width="270" height="18" rx="4" ry="4" style="fill:#589ad7" />
<text x="577" y="435" style="font:normal 11px Roboto" >Mar 6 - Mar 13</text>
<text x="558" y="464" style="font:bold 12px Roboto" >1.3 - Milestone 1</text>
<polygon points="558,477 566,468 574,477 566,486" style="fill:#ecb22f" />
<text x="598" y="481" style="font:normal 11px Roboto" >Mar 13 - Mar 13</text>
<text x="566" y="510" style="font:bold 12px Roboto" >1.4 - Implementation</text>
<rect x="566" y="514" width="378" height="18" rx="4" ry="4" style="fill:#589ad7" />
<text x="960" y="527" style="font:normal 11px Roboto" >Mar 13 - Mar 22</text>
<text x="566" y="556" style="font:bold 12px Roboto" >1.4.1 - Task 1</text>
<rect x="566" y="560" width="270" height="18" rx="4" ry="4" style="fill:#589ad7" />
<text x="852" y="573" style="font:normal 11px Roboto" >Mar 13 - Mar 20</text>
<text x="566" y="602" style="font:bold 12px Roboto" >1.4.2 - Task 2</text>
<rect x="566" y="606" width="378" height="18" rx="4" ry="4" style="fill:#589ad7" />
<text x="960" y="619" style="font:normal 11px Roboto" >Mar 13 - Mar 22</text>
<text x="841" y="648" style="font:bold 12px Roboto" >1.4.3 - Task 3</text>
<rect x="841" y="652" width="54" height="18" rx="4" ry="4" style="fill:#589ad7" />
<text x="911" y="665" style="font:normal 11px Roboto" >Mar 20 - Mar 21</text>
<text x="943" y="694" style="font:bold 12px Roboto" >1.5 - Milestone 2</text>
<polygon points="943,707 951,698 959,707 951,716" style="fill:#ecb22f" />
<text x="983" y="711" style="font:normal 11px Roboto" >Mar 22 - Mar 22</text>
</svg>
