<?xml version="1.0"?>
<!-- Generated by SVGo -->
<svg width="2000" height="832"
     xmlns="http://www.w3.org/2000/svg"
     xmlns:xlink="http://www.w3.org/1999/xlink">
<defs>
<style type="text/css">
<![CDATA[
@import url('https://fonts.googleapis.com/css?family=Roboto:400,100,100italic,300,300italic,400italic,500,500italic,700,700italic,900,900italic');
]]>
</style>
</defs>
<rect x="16" y="16" width="1968" height="48" rx="4" ry="4" style="fill:#44536a" />
<text x="19" y="45" style="font:bold 14px Roboto;fill:white" >Feb 27</text>
<line x1="16" y1="64" x2="16" y2="816" style="stroke:#f0f0f0;z-index:0" />
<text x="1936" y="45" style="font:bold 14px Roboto;fill:white" >Mar 30</text>
<line x1="1984" y1="64" x2="1984" y2="816" style="stroke:#f0f0f0;z-index:0" />
<text x="80" y="45" style="font:bold 14px Roboto;fill:white" >Feb 28</text>
<line x1="101" y1="51" x2="101" y2="61" style="stroke:white;stroke-width:2px" />
<line x1="101" y1="51" x2="101" y2="816" style="stroke:#f0f0f0;z-index:0" />
<text x="168" y="45" style="font:bold 14px Roboto;fill:white" >Mar 1</text>
<line x1="186" y1="51" x2="186" y2="61" style="stroke:white;stroke-width:2px" />
<line x1="186" y1="51" x2="186" y2="816" style="stroke:#f0f0f0;z-index:0" />
<text x="253" y="45" style="font:bold 14px Roboto;fill:white" >Mar 2</text>
<line x1="271" y1="51" x2="271" y2="61" style="stroke:white;stroke-width:2px" />
<line x1="271" y1="51" x2="271" y2="816" style="stroke:#f0f0f0;z-index:0" />
<text x="338" y="45" style="font:bold 14px Roboto;fill:white" >Mar 3</text>
<line x1="356" y1="51" x2="356" y2="61" style="stroke:white;stroke-width:2px" />
<line x1="356" y1="51" x2="356" y2="816" style="stroke:#f0f0f0;z-index:0" />
<text x="423" y="45" style="font:bold 14px Roboto;fill:white" >Mar 6</text>
<line x1="441" y1="51" x2="441" y2="61" style="stroke:white;stroke-width:2px" />
<line x1="441" y1="51" x2="441" y2="816" style="stroke:#f0f0f0;z-index:0" />
<text x="508" y="45" style="font:bold 14px Roboto;fill:white" >Mar 7</text>
<line x1="526" y1="51" x2="526" y2="61" style="stroke:white;stroke-width:2px" />
<line x1="526" y1="51" x2="526" y2="816" style="stroke:#f0f0f0;z-index:0" />
<text x="593" y="45" style="font:bold 14px Roboto;fill:white" >Mar 8</text>
<line x1="611" y1="51" x2="611" y2="61" style="stroke:white;stroke-width:2px" />
<line x1="611" y1="51" x2="611" y2="816" style="stroke:#f0f0f0;z-index:0" />
<text x="678" y="45" style="font:bold 14px Roboto;fill:white" >Mar 9</text>
<line x1="696" y1="51" x2="696" y2="61" style="stroke:white;stroke-width:2px" />
<line x1="696" y1="51" x2="696" y2="816" style="stroke:#f0f0f0;z-index:0" />
<text x="759" y="45" style="font:bold 14px Roboto;fill:white" >Mar 10</text>
<line x1="781" y1="51" x2="781" y2="61" style="stroke:white;stroke-width:2px" />
<line x1="781" y1="51" x2="781" y2="816" style="stroke:#f0f0f0;z-index:0" />
<text x="844" y="45" style="font:bold 14px Roboto;fill:white" >Mar 13</text>
<line x1="866" y1="51" x2="866" y2="61" style="stroke:white;stroke-width:2px" />
<line x1="866" y1="51" x2="866" y2="816" style="stroke:#f0f0f0;z-index:0" />
<text x="929" y="45" style="font:bold 14px Roboto;fill:white" >Mar 14</text>
<line x1="951" y1="51" x2="951" y2="61" style="stroke:white;stroke-width:2px" />
<line x1="951" y1="51" x2="951" y2="816" style="stroke:#f0f0f0;z-index:0" />
<text x="1014" y="45" style="font:bold 14px Roboto;fill:white" >Mar 15</text>
<line x1="1036" y1="51" x2="1036" y2="61" style="stroke:white;stroke-width:2px" />
<line x1="1036" y1="51" x2="1036" y2="816" style="stroke:#f0f0f0;z-index:0" />
<text x="1099" y="45" style="font:bold 14px Roboto;fill:white" >Mar 16</text>
<line x1="1121" y1="51" x2="1121" y2="61" style="stroke:white;stroke-width:2px" />
<line x1="1121" y1="51" x2="1121" y2="816" style="stroke:#f0f0f0;z-index:0" />
<text x="1184" y="45" style="font:bold 14px Roboto;fill:white" >Mar 17</text>
<line x1="1206" y1="51" x2="1206" y2="61" style="stroke:white;stroke-width:2px" />
<line x1="1206" y1="51" x2="1206" y2="816" style="stroke:#f0f0f0;z-index:0" />
<text x="1269" y="45" style="font:bold 14px Roboto;fill:white" >Mar 20</text>
<line x1="1291" y1="51" x2="1291" y2="61" style="stroke:white;stroke-width:2px" />
<line x1="1291" y1="51" x2="1291" y2="816" style="stroke:#f0f0f0;z-index:0" />
<text x="1354" y="45" style="font:bold 14px Roboto;fill:white" >Mar 21</text>
<line x1="1376" y1="51" x2="1376" y2="61" style="stroke:white;stroke-width:2px" />
<line x1="1376" y1="51" x2="1376" y2="816" style="stroke:#f0f0f0;z-index:0" />
<text x="1439" y="45" style="font:bold 14px Roboto;fill:white" >Mar 22</text>
<line x1="1461" y1="51" x2="1461" y2="61" style="stroke:white;stroke-width:2px" />
<line x1="1461" y1="51" x2="1461" y2="816" style="stroke:#f0f0f0;z-index:0" />
<text x="1524" y="45" style="font:bold 14px Roboto;fill:white" >Mar 23</text>
<line x1="1546" y1="51" x2="1546" y2="61" style="stroke:white;stroke-width:2px" />
<line x1="1546" y1="51" x2="1546" y2="816" style="stroke:#f0f0f0;z-index:0" />
<text x="1609" y="45" style="font:bold 14px Roboto;fill:white" >Mar 24</text>
<line x1="1631" y1="51" x2="1631" y2="61" style="stroke:white;stroke-width:2px" />
<line x1="1631" y1="51" x2="1631" y2="816" style="stroke:#f0f0f0;z-index:0" />
<text x="1694" y="45" style="font:bold 14px Roboto;fill:white" >Mar 27</text>
<line x1="1716" y1="51" x2="1716" y2="61" style="stroke:white;stroke-width:2px" />
<line x1="1716" y1="51" x2="1716" y2="816" style="stroke:#f0f0f0;z-index:0" />
<text x="1779" y="45" style="font:bold 14px Roboto;fill:white" >Mar 28</text>
<line x1="1801" y1="51" x2="1801" y2="61" style="stroke:white;stroke-width:2px" />
<line x1="1801" y1="51" x2="1801" y2="816" style="stroke:#f0f0f0;z-index:0" />
<text x="1864" y="45" style="font:bold 14px Roboto;fill:white" >Mar 29</text>
<line x1="1886" y1="51" x2="1886" y2="61" style="stroke:white;stroke-width:2px" />
<line x1="1886" y1="51" x2="1886" y2="816" style="stroke:#f0f0f0;z-index:0" />
<rect x="16" y="59" width="0" height="5" rx="4" ry="4" style="fill:#d4182d" />
<rect x="16" y="59" width="0" height="2" style="fill:#d4182d" />
<rect x="32" y="59" width="-16" height="5" style="fill:#d4182d" />
<rect x="16" y="59" width="0" height="5" style="fill:orange" />
<text x="16" y="96" style="font:bold 12px Roboto" >1 - Phase 1</text>
<rect x="16" y="100" width="1428" height="18" rx="4" ry="4" style="fill:#589ad7" />
<text x="1460" y="113" style="font:normal 11px Roboto" >Feb 27 - Mar 22</text>
<text x="16" y="142" style="font:bold 12px Roboto" >1.1 - Design</text>
<rect x="16" y="146" width="336" height="18" rx="4" ry="4" style="fill:#589ad7" />
<text x="368" y="159" style="font:normal 11px Roboto" >Feb 27 - Mar 3</text>
<text x="16" y="188" style="font:bold 12px Roboto" >1.1.1 - Task 1</text>
<rect x="16" y="192" width="168" height="18" rx="4" ry="4" style="fill:#589ad7" />
<text x="200" y="205" style="font:normal 11px Roboto" >Feb 27 - Mar 1</text>
<text x="16" y="234" style="font:bold 12px Roboto" >1.1.2 - Task 2</text>
<rect x="16" y="238" width="336" height="18" rx="4" ry="4" style="fill:#589ad7" />
<text x="368" y="251" style="font:normal 11px Roboto" >Feb 27 - Mar 3</text>
<text x="441" y="280" style="font:bold 12px Roboto" >1.2 - Implementation</text>
<rect x="441" y="284" width="420" height="18" rx="4" ry="4" style="fill:#589ad7" />
<text x="877" y="297" style="font:normal 11px Roboto" >Mar 6 - Mar 13</text>
<text x="441" y="326" style="font:bold 12px Roboto" >1.2.1 - Task 1</text>
<rect x="441" y="330" width="84" height="18" rx="4" ry="4" style="fill:#589ad7" />
<text x="541" y="343" style="font:normal 11px Roboto" >Mar 6 - Mar 6</text>
<text x="441" y="372" style="font:bold 12px Roboto" >1.2.2 - Task 2</text>
<rect x="441" y="376" width="84" height="18" rx="4" ry="4" style="fill:#589ad7" />
<text x="541" y="389" style="font:normal 11px Roboto" >Mar 6 - Mar 7</text>
<text x="441" y="418" style="font:bold 12px Roboto" >1.2.3 - Task 3</text>
<rect x="441" y="422" width="420" height="18" rx="4" ry="4" style="fill:#589ad7" />
<text x="877" y="435" style="font:normal 11px Roboto" >Mar 6 - Mar 13</text>
<text x="858" y="464" style="font:bold 12px Roboto" >1.3 - Milestone 1</text>
<polygon points="858,477 866,468 874,477 866,486" style="fill:#ecb22f" />
<text x="898" y="481" style="font:normal 11px Roboto" >Mar 13 - Mar 13</text>
<text x="866" y="510" style="font:bold 12px Roboto" >1.4 - Implementation</text>
<rect x="866" y="514" width="588" height="18" rx="4" ry="4" style="fill:#589ad7" />
<text x="1470" y="527" style="font:normal 11px Roboto" >Mar 13 - Mar 22</text>
<text x="866" y="556" style="font:bold 12px Roboto" >1.4.1 - Task 1</text>
<rect x="866" y="560" width="420" height="18" rx="4" ry="4" style="fill:#589ad7" />
<text x="1302" y="573" style="font:normal 11px Roboto" >Mar 13 - Mar 20</text>
<text x="866" y="602" style="font:bold 12px Roboto" >1.4.2 - Task 2</text>
<rect x="866" y="606" width="588" height="18" rx="4" ry="4" style="fill:#589ad7" />
<text x="1470" y="619" style="font:normal 11px Roboto" >Mar 13 - Mar 22</text>
<text x="1291" y="648" style="font:bold 12px Roboto" >1.4.3 - Task 3</text>
<rect x="1291" y="652" width="84" height="18" rx="4" ry="4" style="fill:#589ad7" />
<text x="1391" y="665" style="font:normal 11px Roboto" >Mar 20 - Mar 21</text>
<text x="1453" y="694" style="font:bold 12px Roboto" >1.5 - Milestone 2</text>
<polygon points="1453,707 1461,698 1469,707 1461,716" style="fill:#ecb22f" />
<text x="1493" y="711" style="font:normal 11px Roboto" >Mar 22 - Mar 22</text>
<text x="1461" y="740" style="font:bold 12px Roboto" >2 - Phase 2</text>
<rect x="1461" y="744" width="420" height="18" rx="4" ry="4" style="fill:#589ad7" />
<text x="1897" y="757" style="font:normal 11px Roboto" >Mar 22 - Mar 29</text>
<text x="1461" y="786" style="font:bold 12px Roboto" >2.1 - Planning</text>
<rect x="1461" y="790" width="420" height="18" rx="4" ry="4" style="fill:#589ad7" />
<text x="1897" y="803" style="font:normal 11px Roboto" >Mar 22 - Mar 29</text>
</svg>
