<?xml version="1.0"?>
<!-- Generated by SVGo -->
<svg width="1143" height="464"
     style="background-color:white"
     xmlns="http://www.w3.org/2000/svg"
     xmlns:xlink="http://www.w3.org/1999/xlink">
<defs>
<style type="text/css">
<![CDATA[
@import url('https://fonts.googleapis.com/css?family=Roboto:400,100,100italic,300,300italic,400italic,500,500italic,700,700italic,900,900italic');
]]>
</style>
</defs>
<rect x="16" y="16" width="992" height="48" rx="4" ry="4" style="fill:#44536a" />
<text x="19" y="45" style="font:bold 14px Roboto;fill:white" >Feb 27</text>
<line x1="16" y1="64" x2="16" y2="448" style="stroke:#f0f0f0;z-index:0" />
<text x="960" y="45" style="font:bold 14px Roboto;fill:white" >Mar 30</text>
<line x1="1008" y1="64" x2="1008" y2="448" style="stroke:#f0f0f0;z-index:0" />
<line x1="59" y1="51" x2="59" y2="61" style="stroke:white;stroke-width:2px" />
<line x1="59" y1="51" x2="59" y2="448" style="stroke:#f0f0f0;z-index:0" />
<text x="84" y="45" style="font:bold 14px Roboto;fill:white" >Mar 1</text>
<line x1="102" y1="51" x2="102" y2="61" style="stroke:white;stroke-width:2px" />
<line x1="102" y1="51" x2="102" y2="448" style="stroke:#f0f0f0;z-index:0" />
<line x1="145" y1="51" x2="145" y2="61" style="stroke:white;stroke-width:2px" />
<line x1="145" y1="51" x2="145" y2="448" style="stroke:#f0f0f0;z-index:0" />
<text x="170" y="45" style="font:bold 14px Roboto;fill:white" >Mar 3</text>
<line x1="188" y1="51" x2="188" y2="61" style="stroke:white;stroke-width:2px" />
<line x1="188" y1="51" x2="188" y2="448" style="stroke:#f0f0f0;z-index:0" />
<line x1="231" y1="51" x2="231" y2="61" style="stroke:white;stroke-width:2px" />
<line x1="231" y1="51" x2="231" y2="448" style="stroke:#f0f0f0;z-index:0" />
<text x="256" y="45" style="font:bold 14px Roboto;fill:white" >Mar 7</text>
<line x1="274" y1="51" x2="274" y2="61" style="stroke:white;stroke-width:2px" />
<line x1="274" y1="51" x2="274" y2="448" style="stroke:#f0f0f0;z-index:0" />
<line x1="317" y1="51" x2="317" y2="61" style="stroke:white;stroke-width:2px" />
<line x1="317" y1="51" x2="317" y2="448" style="stroke:#f0f0f0;z-index:0" />
<text x="342" y="45" style="font:bold 14px Roboto;fill:white" >Mar 9</text>
<line x1="360" y1="51" x2="360" y2="61" style="stroke:white;stroke-width:2px" />
<line x1="360" y1="51" x2="360" y2="448" style="stroke:#f0f0f0;z-index:0" />
<line x1="403" y1="51" x2="403" y2="61" style="stroke:white;stroke-width:2px" />
<line x1="403" y1="51" x2="403" y2="448" style="stroke:#f0f0f0;z-index:0" />
<text x="424" y="45" style="font:bold 14px Roboto;fill:white" >Mar 13</text>
<line x1="446" y1="51" x2="446" y2="61" style="stroke:white;stroke-width:2px" />
<line x1="446" y1="51" x2="446" y2="448" style="stroke:#f0f0f0;z-index:0" />
<line x1="489" y1="51" x2="489" y2="61" style="stroke:white;stroke-width:2px" />
<line x1="489" y1="51" x2="489" y2="448" style="stroke:#f0f0f0;z-index:0" />
<text x="510" y="45" style="font:bold 14px Roboto;fill:white" >Mar 15</text>
<line x1="532" y1="51" x2="532" y2="61" style="stroke:white;stroke-width:2px" />
<line x1="532" y1="51" x2="532" y2="448" style="stroke:#f0f0f0;z-index:0" />
<line x1="575" y1="51" x2="575" y2="61" style="stroke:white;stroke-width:2px" />
<line x1="575" y1="51" x2="575" y2="448" style="stroke:#f0f0f0;z-index:0" />
<text x="596" y="45" style="font:bold 14px Roboto;fill:white" >Mar 17</text>
<line x1="618" y1="51" x2="618" y2="61" style="stroke:white;stroke-width:2px" />
<line x1="618" y1="51" x2="618" y2="448" style="stroke:#f0f0f0;z-index:0" />
<line x1="661" y1="51" x2="661" y2="61" style="stroke:white;stroke-width:2px" />
<line x1="661" y1="51" x2="661" y2="448" style="stroke:#f0f0f0;z-index:0" />
<text x="682" y="45" style="font:bold 14px Roboto;fill:white" >Mar 21</text>
<line x1="704" y1="51" x2="704" y2="61" style="stroke:white;stroke-width:2px" />
<line x1="704" y1="51" x2="704" y2="448" style="stroke:#f0f0f0;z-index:0" />
<line x1="747" y1="51" x2="747" y2="61" style="stroke:white;stroke-width:2px" />
<line x1="747" y1="51" x2="747" y2="448" style="stroke:#f0f0f0;z-index:0" />
<text x="768" y="45" style="font:bold 14px Roboto;fill:white" >Mar 23</text>
<line x1="790" y1="51" x2="790" y2="61" style="stroke:white;stroke-width:2px" />
<line x1="790" y1="51" x2="790" y2="448" style="stroke:#f0f0f0;z-index:0" />
<line x1="833" y1="51" x2="833" y2="61" style="stroke:white;stroke-width:2px" />
<line x1="833" y1="51" x2="833" y2="448" style="stroke:#f0f0f0;z-index:0" />
<text x="854" y="45" style="font:bold 14px Roboto;fill:white" >Mar 27</text>
<line x1="876" y1="51" x2="876" y2="61" style="stroke:white;stroke-width:2px" />
<line x1="876" y1="51" x2="876" y2="448" style="stroke:#f0f0f0;z-index:0" />
<line x1="919" y1="51" x2="919" y2="61" style="stroke:white;stroke-width:2px" />
<line x1="919" y1="51" x2="919" y2="448" style="stroke:#f0f0f0;z-index:0" />
<line x1="962" y1="51" x2="962" y2="61" style="stroke:white;stroke-width:2px" />
<line x1="962" y1="51" x2="962" y2="448" style="stroke:#f0f0f0;z-index:0" />
<rect x="16" y="59" width="0" height="5" rx="4" ry="4" style="fill:#d4182d" />
<rect x="16" y="59" width="0" height="2" style="fill:#d4182d" />
<rect x="32" y="59" width="-16" height="5" style="fill:#d4182d" />
<rect x="16" y="59" width="0" height="5" style="fill:orange" />
<text x="16" y="96" style="font:bold 12px Roboto" >1 - Phase 1</text>
<rect x="16" y="100" width="714" height="18" rx="4" ry="4" style="fill:#589ad7" />
<text x="746" y="113" style="font:normal 11px Roboto" >Feb 27 - Mar 22</text>
<text x="16" y="142" style="font:bold 12px Roboto" >1.1 - Design</text>
<rect x="16" y="146" width="168" height="18" rx="4" ry="4" style="fill:#589ad7" />
<text x="200" y="159" style="font:normal 11px Roboto" >Feb 27 - Mar 3</text>
<text x="231" y="188" style="font:bold 12px Roboto" >1.2 - Implementation</text>
<rect x="231" y="192" width="210" height="18" rx="4" ry="4" style="fill:#589ad7" />
<text x="457" y="205" style="font:normal 11px Roboto" >Mar 6 - Mar 13</text>
<text x="438" y="234" style="font:bold 12px Roboto" >1.3 - Milestone 1</text>
<polygon points="438,247 446,238 454,247 446,256" style="fill:#ecb22f" />
<text x="478" y="251" style="font:normal 11px Roboto" >Mar 13 - Mar 13</text>
<text x="446" y="280" style="font:bold 12px Roboto" >1.4 - Implementation</text>
<rect x="446" y="284" width="294" height="18" rx="4" ry="4" style="fill:#589ad7" />
<text x="756" y="297" style="font:normal 11px Roboto" >Mar 13 - Mar 22</text>
<text x="739" y="326" style="font:bold 12px Roboto" >1.5 - Milestone 2</text>
<polygon points="739,339 747,330 755,339 747,348" style="fill:#ecb22f" />
<text x="779" y="343" style="font:normal 11px Roboto" >Mar 22 - Mar 22</text>
<text x="747" y="372" style="font:bold 12px Roboto" >2 - Phase 2</text>
<rect x="747" y="376" width="210" height="18" rx="4" ry="4" style="fill:#589ad7" />
<text x="973" y="389" style="font:normal 11px Roboto" >Mar 22 - Mar 29</text>
<text x="747" y="418" style="font:bold 12px Roboto" >2.1 - Planning</text>
<rect x="747" y="422" width="210" height="18" rx="4" ry="4" style="fill:#589ad7" />
<text x="973" y="435" style="font:normal 11px Roboto" >Mar 22 - Mar 29</text>
</svg>
